<svg xmlns="http://www.w3.org/2000/svg" width="41.472" height="41.472" viewBox="0 0 41.472 41.472">
  <g id="Icon_ionic-logo-instagram" data-name="Icon ionic-logo-instagram" transform="translate(-4.5 -4.5)">
    <path id="Path_32" data-name="Path 32" d="M33.876,7.956a8.665,8.665,0,0,1,8.64,8.64v17.28a8.665,8.665,0,0,1-8.64,8.64H16.6a8.665,8.665,0,0,1-8.64-8.64V16.6a8.665,8.665,0,0,1,8.64-8.64h17.28m0-3.456H16.6A12.132,12.132,0,0,0,4.5,16.6v17.28a12.132,12.132,0,0,0,12.1,12.1h17.28a12.132,12.132,0,0,0,12.1-12.1V16.6a12.132,12.132,0,0,0-12.1-12.1Z" fill="#e17342"/>
    <path id="Path_33" data-name="Path 33" d="M26.217,14.184a2.592,2.592,0,1,1,2.592-2.592A2.586,2.586,0,0,1,26.217,14.184Z" transform="translate(10.251 2.412)" fill="#e17342"/>
    <path id="Path_34" data-name="Path 34" d="M21.618,14.706a6.912,6.912,0,1,1-6.912,6.912,6.918,6.918,0,0,1,6.912-6.912m0-3.456A10.368,10.368,0,1,0,31.986,21.618,10.371,10.371,0,0,0,21.618,11.25Z" transform="translate(3.618 3.618)" fill="#e17342"/>
  </g>
</svg>
