<svg xmlns="http://www.w3.org/2000/svg" width="85" height="85" viewBox="0 0 85 85">
  <path id="Icon_awesome-arrow-circle-up" data-name="Icon awesome-arrow-circle-up" d="M.563,43.062a42.5,42.5,0,1,1,42.5,42.5A42.493,42.493,0,0,1,.563,43.062Zm24.609,4.953L37.579,35.077V66.369a4.1,4.1,0,0,0,4.113,4.113h2.742a4.1,4.1,0,0,0,4.113-4.113V35.077L60.954,48.015a4.118,4.118,0,0,0,5.878.069L68.7,46.2a4.1,4.1,0,0,0,0-5.809L45.976,17.648a4.1,4.1,0,0,0-5.809,0L17.408,40.389a4.1,4.1,0,0,0,0,5.809l1.868,1.885A4.138,4.138,0,0,0,25.171,48.015Z" transform="translate(-0.563 -0.563)" fill="#e17342"/>
</svg>
