<svg xmlns="http://www.w3.org/2000/svg" xmlns:xlink="http://www.w3.org/1999/xlink" width="1225.322" height="397" viewBox="0 0 1225.322 397">
  <defs>
    <clipPath id="clip-path">
      <rect id="Rectangle_24" data-name="Rectangle 24" width="1180.644" height="294.149" fill="#e17342"/>
    </clipPath>
  </defs>
  <g id="Group_17" data-name="Group 17" transform="translate(10867.322 21901)">
    <text id="Effektivitet_Grundighed" data-name="Effektivitet 
Grundighed" transform="translate(-9827 -21580)" fill="#ddb4c4" font-size="30" font-family="SourceSansPro-Regular, Source Sans Pro"><tspan x="0" y="30">EFFEKTIVITET </tspan><tspan x="0" y="68">GRUNDIGHED</tspan></text>
    <g id="Group_16" data-name="Group 16" transform="translate(-10867.322 -21901)">
      <path id="Path_10" data-name="Path 10" d="M1.423.357V32.8H102.847V291.659H145.7V32.8H247.129V.357Z" transform="translate(5.915 1.481)" fill="#e17342"/>
      <g id="Group_5" data-name="Group 5" transform="translate(0 0.001)">
        <g id="Group_4" data-name="Group 4" clip-path="url(#clip-path)">
          <path id="Path_11" data-name="Path 11" d="M137.448.352,7.641.383C-3.57,8.99-.533,24.171,4.671,30.854A4.328,4.328,0,0,0,7.93,32.819l94.2-.031a4.151,4.151,0,0,1,3.656,2.64,12.1,12.1,0,0,1-.015,10.35A4.361,4.361,0,0,1,102,48.656H58.6A4.381,4.381,0,0,0,54.712,51.8a11.188,11.188,0,0,0,.088,8.313,4.418,4.418,0,0,0,3.868,3.12h35.35c1.624,0,3.14,1.207,3.914,3.213A15.037,15.037,0,0,1,97.8,78.189a4.093,4.093,0,0,1-3.646,2.625H37.519c-1.666,0-3.228,1.258-3.971,3.352a12.172,12.172,0,0,0,.026,8.462,4.43,4.43,0,0,0,3.919,3.2H100.53c1.923,0,3.636,1.712,4.254,4.27a14.045,14.045,0,0,1,.217,5.992c-.521,2.609-2.321,4.316-4.249,4.316H18.867a4.093,4.093,0,0,0-3.455,2.31s-3.073,4.512.278,10.716a4.744,4.744,0,0,0,3.641,2.388H82.714c1.779,0,3.388,1.485,4.11,3.764a7.619,7.619,0,0,1,.005,5.832c-.706,2.223-2.315,3.6-4.048,3.6h-19.3c-2.377,0-4.5,2.589-4.5,5.93a8.934,8.934,0,0,0,.206,1.939c.541,2.542,2.346,4.141,4.234,4.141H95.755c2.795,0,5.26,2.785,5.714,6.663l.026.273c.464,4.734-2.377,8.854-5.781,8.854H45.966c-2.4,0-4.528,2.511-4.693,5.874l-.01.206c-.124,3.677,2.078,6.7,4.7,6.7H95.853c2.068,0,3.929,1.975,4.332,4.822l.021.15c.485,3.708-1.722,7.06-4.409,7.06H85.648c-2,0-3.837,1.851-4.27,4.59l-.026.144c-.547,3.77,1.63,7.256,4.368,7.256H98.468a8.744,8.744,0,0,1,7.668,4.3,23.236,23.236,0,0,1,2.625,11.567" transform="translate(0.002 1.461)" fill="#e17342"/>
          <path id="Path_12" data-name="Path 12" d="M25.216,9.718H10.488c-3.764,0-6.812,4.089-6.173,8.638l.031.206C4.9,21.981,7.534,24.3,10.375,24.3H25.216c3.3,0,6.173-3.151,6.214-7.2v-.2c-.026-4.033-2.919-7.178-6.214-7.178" transform="translate(17.585 40.393)" fill="#e17342"/>
          <path id="Path_13" data-name="Path 13" d="M25.992,27.243H11.264a6.2,6.2,0,0,0-6.173,7.106l.031.175a6.069,6.069,0,0,0,6.028,4.718H25.992a6.147,6.147,0,0,0,6.214-5.925v-.165a6.134,6.134,0,0,0-6.214-5.91" transform="translate(20.811 113.241)" fill="#e17342"/>
          <path id="Path_14" data-name="Path 14" d="M157.016,292.005q-29.788,0-53.548-11.783Q79.69,268.441,65.922,241.386T52.153,168.52V.517H89.019V169.392q0,34.476,9.112,54.327t24.448,28.146q15.316,8.284,34.437,8.287,19.547,0,35.092-8.287t24.66-28.146q9.112-19.848,9.112-54.327V.517h35.551v168q0,45.816-13.784,72.866-13.776,27.065-37.315,38.836Q186.771,292,157.016,292.005" transform="translate(216.79 2.146)" fill="#e17342"/>
          <path id="Path_15" data-name="Path 15" d="M96.847,292V.516h91.079Q217.691.516,240.8,8.3t36.221,25.763q13.1,18,13.1,48.211,0,33.78-17.776,54.435t-47.994,28.213L298.576,292H256.8L186.6,168.922H133.728V292Zm36.881-153.3H182.6q34.213,0,52.429-14,18.2-13.993,18.209-42.435,0-28.875-18.209-40.434Q216.81,30.3,182.6,30.291H133.728Z" transform="translate(402.573 2.142)" fill="#e17342"/>
          <path id="Path_16" data-name="Path 16" d="M138.888,292.005V.517h86.639q29.765,0,52.213,7.111,22.432,7.116,35.107,22.664Q325.495,45.848,325.5,71.614a73.148,73.148,0,0,1-10.876,39.321q-10.914,17.567-31.781,24.221v1.774q26.214,4.9,42.889,22.215Q342.4,176.48,342.4,206.7q0,28.435-14,47.54t-38.882,28.44q-24.884,9.329-57.766,9.329Zm36.881-167.519h43.09q37.338,0,53.775-12.887,16.422-12.871,16.43-35.1,0-25.325-17.11-35.989-17.095-10.667-51.315-10.669H175.769Zm0,138.192h50.655q37.748,0,58.648-14,20.877-14,20.885-43.327,0-27.1-20.668-39.769-20.653-12.655-58.865-12.66H175.769Z" transform="translate(577.329 2.146)" fill="#e17342"/>
          <path id="Path_17" data-name="Path 17" d="M305.028,294.149q-36.425,0-64.656-18.162-28.226-18.178-43.982-51.48-15.772-33.3-15.78-78.729,0-45.413,15.78-78.084,15.772-32.65,43.982-50.176Q268.6.005,305.028,0,341.91,0,369.9,17.518t43.982,50.176q16.012,32.681,16,78.084,0,45.421-16,78.729T369.9,275.987q-27.994,18.162-64.873,18.162m0-31.575q26.207,0,45.545-14.491t29.987-40.661q10.675-26.168,10.675-61.644,0-52.762-23.546-83.489-23.561-30.7-62.66-30.714T242.383,62.289q-23.561,30.724-23.561,83.489,0,35.474,10.675,61.644,10.651,26.176,30.214,40.661,19.555,14.5,45.318,14.491" transform="translate(750.759 -0.003)" fill="#e17342"/>
        </g>
      </g>
    </g>
  </g>
</svg>
