<svg xmlns="http://www.w3.org/2000/svg" xmlns:xlink="http://www.w3.org/1999/xlink" width="151.309" height="168.999" viewBox="0 0 151.309 168.999">
  <defs>
    <clipPath id="clip-path">
      <rect id="Rectangle_26" data-name="Rectangle 26" width="151.308" height="168.998" fill="#e17342"/>
    </clipPath>
  </defs>
  <g id="Group_11" data-name="Group 11" transform="translate(0 0)">
    <path id="Path_26" data-name="Path 26" d="M1.49,0V12.8h61.2V169H88.549V12.8h61.2V0Z" transform="translate(1.562)" fill="#e17342"/>
    <g id="Group_10" data-name="Group 10" transform="translate(0 0)">
      <g id="Group_9" data-name="Group 9" clip-path="url(#clip-path)">
        <path id="Path_27" data-name="Path 27" d="M81.905,0,3.58.018a2.516,2.516,0,0,0-2.153,1.5C.3,3.64-1.133,7.706,1.444,11.617A2.4,2.4,0,0,0,3.41,12.8l56.843-.018a2.5,2.5,0,0,1,2.2,1.594,7.292,7.292,0,0,1-.01,6.246,2.627,2.627,0,0,1-2.278,1.735H33.984a2.645,2.645,0,0,0-2.348,1.9,6.761,6.761,0,0,0,.053,5.015,2.664,2.664,0,0,0,2.333,1.883H55.353a2.69,2.69,0,0,1,2.362,1.94,9.076,9.076,0,0,1-.078,7.086,2.469,2.469,0,0,1-2.2,1.583H21.263a2.7,2.7,0,0,0-2.395,2.022,7.329,7.329,0,0,0,.016,5.1,2.669,2.669,0,0,0,2.362,1.93H59.284c1.159,0,2.194,1.034,2.567,2.577a8.447,8.447,0,0,1,.129,3.616,2.9,2.9,0,0,1-2.563,2.606H10.008a2.472,2.472,0,0,0-2.085,1.393,6.366,6.366,0,0,0,.17,6.467,2.866,2.866,0,0,0,2.2,1.44H48.534a2.856,2.856,0,0,1,2.479,2.27,4.59,4.59,0,0,1,0,3.521,2.765,2.765,0,0,1-2.442,2.175H36.927c-1.436,0-2.712,1.559-2.714,3.577a5.549,5.549,0,0,0,.123,1.172,2.851,2.851,0,0,0,2.556,2.5H56.4c1.688,0,3.173,1.68,3.446,4.021l.018.162c.279,2.858-1.436,5.344-3.489,5.344H26.361c-1.448,0-2.735,1.516-2.833,3.544,0,.041,0,.082,0,.125-.078,2.218,1.252,4.044,2.833,4.044h30.1c1.245,0,2.37,1.192,2.614,2.909l.012.09c.291,2.239-1.039,4.261-2.659,4.261H50.3c-1.207,0-2.315,1.116-2.577,2.77-.006.029-.01.059-.014.088-.332,2.274.983,4.376,2.634,4.376h7.692a5.274,5.274,0,0,1,4.625,2.593,13.988,13.988,0,0,1,1.586,6.979" transform="translate(0)" fill="#e17342"/>
        <path id="Path_28" data-name="Path 28" d="M18.416,10.914H9.529c-2.272,0-4.109,2.468-3.724,5.213l.018.127a3.883,3.883,0,0,0,3.638,3.46h8.952c1.993,0,3.726-1.9,3.751-4.347,0-.039,0-.08,0-.119-.016-2.438-1.76-4.335-3.749-4.335" transform="translate(6.033 11.443)" fill="#e17342"/>
        <path id="Path_29" data-name="Path 29" d="M19.6,37.535H10.709a3.738,3.738,0,0,0-3.724,4.289l.018.1a3.662,3.662,0,0,0,3.638,2.847h8.952A3.71,3.71,0,0,0,23.344,41.2c0-.033,0-.066,0-.1A3.7,3.7,0,0,0,19.6,37.535" transform="translate(7.27 39.354)" fill="#e17342"/>
      </g>
    </g>
  </g>
</svg>
